<?xml version="1.0" encoding="utf-8"?>
<!-- Generator: Adobe Illustrator 21.0.2, SVG Export Plug-In . SVG Version: 6.00 Build 0)  -->
<svg version="1.1" id="Layer_1" xmlns="http://www.w3.org/2000/svg" xmlns:xlink="http://www.w3.org/1999/xlink" x="0px" y="0px"
	 viewBox="0 0 32 32" style="enable-background:new 0 0 32 32;" xml:space="preserve">
<style type="text/css">
	.st0{fill:url(#SVGID_1_);}
	.st1{fill:#FFFFFF;}
	.st2{fill:url(#SVGID_2_);}
	.st3{fill:url(#SVGID_3_);}
	.st4{fill:url(#SVGID_4_);}
	.st5{fill:url(#SVGID_5_);}
	.st6{fill:url(#SVGID_6_);}
	.st7{fill:url(#SVGID_7_);}
	.st8{fill:url(#SVGID_8_);}
	.st9{fill:url(#SVGID_9_);}
	.st10{fill:url(#SVGID_10_);}
	.st11{fill:url(#SVGID_11_);}
	.st12{fill:url(#SVGID_12_);}
</style>
<g>
	<g>
		<linearGradient id="SVGID_1_" gradientUnits="userSpaceOnUse" x1="-11.501" y1="31.6375" x2="22.995" y2="26.7095">
			<stop  offset="2.020200e-02" style="stop-color:#45108A"/>
			<stop  offset="0.2929" style="stop-color:#3D065F"/>
			<stop  offset="1" style="stop-color:#12054E"/>
			<stop  offset="1" style="stop-color:#10054D"/>
		</linearGradient>
		<path class="st0" d="M8.5,32.3c-0.4,0-0.7-0.1-1-0.2c-0.3-0.2-0.5-0.4-0.7-0.7l-0.5-0.7v1.5H3.2v-4.9c0-0.5,0.1-0.9,0.4-1.1
			c0.3-0.3,0.7-0.4,1.3-0.4c0.4,0,0.8,0.1,1.1,0.3c0.3,0.2,0.6,0.4,0.8,0.7l0.4,0.5v-1.4h3.1v5c0,0.5-0.1,0.8-0.4,1.1
			C9.5,32.2,9.1,32.3,8.5,32.3z"/>
		<path class="st1" d="M4.9,26.1c0.3,0,0.6,0.1,0.8,0.2c0.3,0.1,0.5,0.3,0.7,0.6l0.8,1.2c0,0,0.1,0.2,0.3,0.5l0,0v-2.4h2.3v4.7
			c0,0.4-0.1,0.7-0.3,0.9S9,32,8.5,32C8.2,32,8,32,7.7,31.8c-0.2-0.1-0.4-0.3-0.6-0.6l-0.9-1.3c0,0-0.1-0.1-0.1-0.2
			c-0.1-0.1-0.1-0.2-0.2-0.3v2.5H3.6v-4.6c0-0.4,0.1-0.7,0.3-0.9C4.2,26.2,4.5,26.1,4.9,26.1 M4.9,25.4c-0.8,0-1.3,0.3-1.6,0.6
			c-0.3,0.3-0.5,0.8-0.5,1.3v4.6v0.6h0.8h2.3h0.8v-0.6v0c0.2,0.2,0.4,0.3,0.6,0.4c0.4,0.2,0.8,0.3,1.3,0.3c0.8,0,1.3-0.3,1.6-0.5
			c0.3-0.3,0.5-0.8,0.5-1.3v-4.7v-0.6H9.8H7.5H6.7v0.6c-0.2-0.2-0.3-0.3-0.5-0.4C5.8,25.5,5.4,25.4,4.9,25.4L4.9,25.4z"/>
	</g>
	<g>
		<linearGradient id="SVGID_2_" gradientUnits="userSpaceOnUse" x1="-12.7276" y1="33.1512" x2="22.4691" y2="28.1231">
			<stop  offset="2.020200e-02" style="stop-color:#45108A"/>
			<stop  offset="0.2929" style="stop-color:#3D065F"/>
			<stop  offset="1" style="stop-color:#12054E"/>
			<stop  offset="1" style="stop-color:#10054D"/>
		</linearGradient>
		<path class="st2" d="M13.2,32.2v-2.3h2.2l-1.3-0.8c-0.3-0.2-0.5-0.4-0.7-0.6c-0.1-0.3-0.2-0.5-0.2-0.8c0-0.6,0.3-1,0.8-1.4
			c0.5-0.3,1.2-0.5,2.1-0.5h2.6v2.3H17l0.7,0.4c0.6,0.3,0.9,0.6,1.1,0.9c0.2,0.3,0.3,0.5,0.3,0.9c0,0.6-0.3,1.1-0.9,1.4
			c-0.5,0.3-1.3,0.5-2.2,0.5H13.2z"/>
		<path class="st1" d="M18.4,26.1v1.6h-1.8c-0.1,0-0.2,0-0.3,0c-0.1,0-0.1,0.1-0.1,0.1c0,0,0,0.1,0,0.1c0,0,0.1,0.1,0.2,0.1l1,0.6
			c0.5,0.3,0.9,0.6,1,0.8c0.1,0.2,0.2,0.4,0.2,0.7c0,0.5-0.2,0.9-0.7,1.2s-1.1,0.4-2,0.4h-2.4v-1.7h2c0.1,0,0.2,0,0.3,0
			c0.1,0,0.1-0.1,0.1-0.2c0,0,0-0.1,0-0.1c0,0-0.1-0.1-0.1-0.1l-1.5-0.9c-0.2-0.1-0.4-0.3-0.5-0.5s-0.2-0.4-0.2-0.7
			c0-0.5,0.2-0.8,0.7-1.1c0.5-0.3,1.1-0.4,1.9-0.4H18.4 M19.2,25.5h-0.8h-2.2c-1,0-1.8,0.2-2.4,0.5c-0.7,0.4-1,0.9-1,1.6
			c0,0.3,0.1,0.7,0.3,0.9c0.2,0.3,0.4,0.6,0.8,0.8l0.4,0.2h-0.6h-0.8v0.6v1.7v0.6h0.8H16c1,0,1.8-0.2,2.5-0.6c0.7-0.4,1-1,1-1.7
			c0-0.4-0.1-0.7-0.3-1c-0.2-0.3-0.5-0.5-1-0.9h0.2h0.8v-0.6v-1.6V25.5L19.2,25.5z"/>
	</g>
	<g>
		<linearGradient id="SVGID_3_" gradientUnits="userSpaceOnUse" x1="-13.4176" y1="34.3349" x2="21.6232" y2="29.3291">
			<stop  offset="2.020200e-02" style="stop-color:#45108A"/>
			<stop  offset="0.2929" style="stop-color:#3D065F"/>
			<stop  offset="1" style="stop-color:#12054E"/>
			<stop  offset="1" style="stop-color:#10054D"/>
		</linearGradient>
		<path class="st3" d="M24.7,32.2h-2.6v-6.4h2.5c0.5,0,1,0.1,1.5,0.1c0.4,0.1,0.9,0.3,1.2,0.5c0.6,0.3,1,0.7,1.3,1.1
			C28.9,28,29,28.5,29,29c0,0.6-0.2,1.1-0.5,1.6c-0.3,0.5-0.8,0.9-1.4,1.2c-0.3,0.1-0.6,0.2-0.9,0.3c-0.3,0.1-0.6,0.1-0.9,0.1v0
			h-0.2H24.7L24.7,32.2z M25.2,29.8c0.2-0.1,0.3-0.1,0.4-0.2c0.1-0.1,0.2-0.3,0.2-0.5c0-0.3-0.1-0.5-0.3-0.6
			c-0.1-0.1-0.2-0.1-0.3-0.2V29.8z"/>
		<path class="st1" d="M24.6,26.1c0.5,0,0.9,0,1.3,0.1c0.4,0.1,0.8,0.2,1.1,0.4c0.5,0.3,0.9,0.6,1.2,1c0.3,0.4,0.4,0.8,0.4,1.3
			c0,0.5-0.2,1-0.5,1.4c-0.3,0.4-0.7,0.8-1.3,1.1c-0.2,0.1-0.5,0.2-0.8,0.3c-0.3,0.1-0.6,0.1-1,0.1v-1.8c0.4-0.1,0.7-0.2,0.9-0.4
			c0.2-0.2,0.3-0.4,0.3-0.7c0-0.3-0.1-0.6-0.4-0.8c-0.3-0.2-0.6-0.3-1-0.3v4h-2.3v-5.8H24.6 M24.6,25.5h-2.1h-0.8v0.6v5.8v0.6h0.8
			h1.8v0l0.8,0h0.5v0c0.2,0,0.4-0.1,0.6-0.1c0.4-0.1,0.7-0.2,1-0.3l0,0l0,0c0.7-0.3,1.2-0.8,1.6-1.3c0.4-0.5,0.6-1.1,0.6-1.7
			c0-0.6-0.2-1.1-0.5-1.6c-0.3-0.5-0.8-0.9-1.4-1.3c-0.4-0.2-0.9-0.4-1.3-0.5C25.7,25.6,25.2,25.5,24.6,25.5L24.6,25.5z"/>
	</g>
</g>
<g>
	<path class="st1" d="M27,12.2L27,12.2l-0.9-1.3l0,0l-1.8-2.7l0.2-0.3l0.7-1c0.2-0.3,0.1-0.5,0-0.6C25.1,6.1,24.9,6,24.5,6h-1.8
		l-0.5-0.7v0L21.3,4l0,0l-0.1-0.1l-0.1-0.1c0,0,0-0.1-0.1-0.1l0,0l0,0c0,0,0,0,0-0.1l0,0l0,0l0,0l0,0l0,0c0,0,0,0-0.1-0.1l0,0l0,0
		c0-0.1-0.1-0.1-0.1-0.2l0,0c0,0,0,0-0.1-0.1l0,0c0,0,0,0,0,0l0,0l0,0c0,0-0.1-0.1-0.1-0.1l0,0c0,0-0.1-0.1-0.1-0.1c0,0,0,0-0.1,0
		c0,0,0,0,0,0l0,0l0,0l0,0c0,0-0.1,0-0.1-0.1l0,0c0,0,0,0,0,0c0,0-0.1,0-0.1-0.1l-0.1,0c0,0-0.1,0-0.1-0.1l0,0l0,0l0,0l0,0
		c0,0,0,0-0.1,0l0,0c0,0,0,0-0.1,0l-0.1,0c0,0-0.1,0-0.1-0.1c0,0-0.1-0.1-0.1-0.1c0,0,0,0-0.1,0c0,0,0,0,0,0c0,0,0,0,0,0
		c0,0,0,0-0.1,0l0,0c0,0-0.1,0-0.2-0.1l-2.9-1.3h8.5c2.7,0,5.1,1.1,6.5,2.9c1.4,1.8,1.5,4,0.2,5.8l-3.1,4.5L27,12.2z"/>
	<path class="st1" d="M13.3,24.2l3.3-5.3h7.9c0.4,0,0.6-0.2,0.7-0.3c0.1-0.1,0.2-0.4,0-0.6l-0.5-0.7l-0.2-0.3l-0.2-0.3l2.7-3.9
		l0.2-0.2l0,0l0.2-0.4l0.8-1.1l0.8,1.1l2.3,3.3c1.3,1.9,1.2,4-0.2,5.8c-1.4,1.8-3.8,2.9-6.5,2.9H13.3z"/>
	<path class="st1" d="M7.7,24.2c-2.7,0-5.1-1.1-6.5-2.9c-1.4-1.8-1.5-4-0.2-5.8l3.1-4.5l3.8,5.6l-1,1.4c-0.2,0.3-0.1,0.5,0,0.6
		c0.1,0.1,0.3,0.3,0.7,0.3h9.9L16.8,20L14,24.2H7.7z"/>
	<polygon class="st1" points="26.9,12.7 28.2,10.8 29.1,12.5 28.5,13.3 	"/>
	<polygon class="st1" points="24.5,16.8 24.3,16.5 24.5,16.2 27.3,12.1 28.2,11.1 29.4,12.7 25.5,18.4 	"/>
	<polygon class="st1" points="27.4,12.8 26.1,10.9 26.1,10.9 24.3,8.3 25.5,6.5 29.4,12 28.9,12.8 28.3,13.5 	"/>
	<path class="st1" d="M10,20.3l-2.3-3.4L2.5,9.4c-1.3-1.9-1.2-4,0.2-5.8c1.4-1.8,3.8-2.9,6.5-2.9h10.5l0.2,0.1
		c0.1,0,0.1,0.1,0.2,0.1c0,0,0.1,0,0.1,0.1c0,0,0,0,0,0c0,0,0.1,0,0.1,0.1c0.1,0,0.1,0.1,0.2,0.1c0,0,0.1,0,0.1,0.1l0.2,0.1l0,0.1
		c0,0,0,0,0,0c0,0,0,0,0.1,0l0,0l0,0c0,0,0.1,0,0.1,0.1c0,0,0,0,0.1,0l0,0c0,0,0.1,0.1,0.1,0.1c0,0,0,0,0.1,0.1c0,0,0.1,0.1,0.1,0.1
		c0,0,0,0,0,0c0,0,0,0,0,0c0,0,0,0,0.1,0c0,0,0.1,0,0.1,0.1c0,0,0.1,0.1,0.1,0.1l0,0c0,0,0,0,0,0c0,0,0.1,0.1,0.1,0.1c0,0,0,0,0,0
		c0,0,0.1,0.1,0.1,0.1c0,0,0.1,0.1,0.1,0.1c0.1,0.1,0.2,0.2,0.2,0.3l0,0l0,0c0,0,0,0.1,0.1,0.1c0,0,0,0.1,0.1,0.1c0,0,0,0,0,0.1
		c0,0,0,0,0,0c0,0,0.1,0.1,0.1,0.1l0,0l0,0l0.1,0.1L24,4.9v0l2.1,3.1l1.6,2.4l0,0l1.1,1.5v0l0.4,0.6l-0.3,0.3L25.3,18l-0.9-1.2
		l-2.8-4L17.1,6H9.2C8.8,6,8.6,6.1,8.5,6.3c-0.1,0.1-0.2,0.4,0,0.6l0.7,1.1l2.8,4.1l4.8,7.1l0.2,0.1l0,0.3v0.7H10z"/>
	<linearGradient id="SVGID_4_" gradientUnits="userSpaceOnUse" x1="19.4488" y1="6.8793" x2="31.2047" y2="6.8793">
		<stop  offset="2.020200e-02" style="stop-color:#45108A"/>
		<stop  offset="0.2929" style="stop-color:#3D065F"/>
		<stop  offset="1" style="stop-color:#12054E"/>
		<stop  offset="1" style="stop-color:#10054D"/>
	</linearGradient>
	<path class="st4" d="M30.2,3.9c-1.2-1.6-3.4-2.5-5.7-2.5h-5.1c0.1,0,0.1,0.1,0.2,0.1c0,0,0.1,0,0.1,0.1c0,0,0,0,0,0
		c0,0,0.1,0,0.1,0c0.1,0,0.1,0.1,0.2,0.1c0,0,0.1,0,0.1,0.1c0,0,0,0,0,0c0,0,0,0,0,0c0,0,0,0,0,0c0,0,0.1,0,0.1,0.1
		c0,0,0.1,0,0.1,0.1c0,0,0,0,0,0c0,0,0,0,0,0c0,0,0.1,0,0.1,0.1c0,0,0,0,0.1,0c0,0,0.1,0.1,0.1,0.1c0,0,0,0,0.1,0
		c0,0,0.1,0.1,0.1,0.1c0,0,0,0,0,0c0,0,0,0,0,0c0,0,0,0,0.1,0c0,0,0,0,0.1,0.1c0,0,0.1,0.1,0.1,0.1c0,0,0,0,0,0c0,0,0.1,0.1,0.1,0.1
		c0,0,0,0,0,0c0,0,0.1,0,0.1,0.1c0,0,0,0.1,0.1,0.1c0.1,0.1,0.1,0.2,0.2,0.2c0,0,0,0,0,0c0,0,0.1,0.1,0.1,0.1c0,0,0,0,0,0.1
		c0,0,0,0,0.1,0.1c0,0,0,0,0,0c0,0,0.1,0.1,0.1,0.1l0.1,0.1c0,0,0,0,0,0l1,1.5c0,0,0,0,0,0l0.1,0.2h1.3c0.9,0,1.3,0.5,1.5,0.6
		c0.1,0.2,0.5,0.7,0,1.3l-0.5,0.7l-0.2,0.3l0,0l1.6,2.4l0,0l0.8,1.1l0.2,0.3v0l0.2,0.4l0.3-0.4l2-2.9C31.5,7.4,31.5,5.5,30.2,3.9z"
		/>
	<linearGradient id="SVGID_5_" gradientUnits="userSpaceOnUse" x1="37.7436" y1="24.9554" x2="25.4843" y2="19.6693">
		<stop  offset="2.020200e-02" style="stop-color:#45108A"/>
		<stop  offset="0.2929" style="stop-color:#3D065F"/>
		<stop  offset="1" style="stop-color:#12054E"/>
		<stop  offset="1" style="stop-color:#10054D"/>
	</linearGradient>
	<path class="st5" d="M30.2,20.9c-1.2,1.6-3.4,2.5-5.7,2.5h-9.7l2.4-3.9h7.3c0.9,0,1.3-0.5,1.5-0.6c0.1-0.2,0.5-0.7,0-1.3l-0.5-0.7
		l-0.2-0.3l0,0l0,0l2.4-3.5l0.4-0.5l0,0l0,0l0,0l0,0l0,0l0.2,0.3l2.1,3C31.5,17.4,31.5,19.3,30.2,20.9z"/>
	<linearGradient id="SVGID_6_" gradientUnits="userSpaceOnUse" x1="-3.1621" y1="13.3337" x2="18.5239" y2="25.8659">
		<stop  offset="2.020200e-02" style="stop-color:#45108A"/>
		<stop  offset="0.2929" style="stop-color:#6D065F"/>
		<stop  offset="1" style="stop-color:#12054E"/>
		<stop  offset="1" style="stop-color:#10054D"/>
	</linearGradient>
	<path class="st6" d="M16.1,19.6L16.1,19.6l-2.6,3.9H7.7c-2.4,0-4.5-0.9-5.7-2.5c-1.2-1.6-1.3-3.5-0.2-5.1l2.3-3.4l2.8,4.1l-0.7,1.1
		c-0.4,0.6-0.1,1.1,0,1.3c0.1,0.2,0.6,0.6,1.5,0.6H16.1z"/>
	<linearGradient id="SVGID_7_" gradientUnits="userSpaceOnUse" x1="27.7158" y1="12.7171" x2="28.0964" y2="12.7171">
		<stop  offset="3.535350e-02" style="stop-color:#2AF6FF"/>
		<stop  offset="0.1125" style="stop-color:#38DCF8"/>
		<stop  offset="0.3574" style="stop-color:#618FE3"/>
		<stop  offset="0.5758" style="stop-color:#8252D3"/>
		<stop  offset="0.7596" style="stop-color:#9925C7"/>
		<stop  offset="0.9017" style="stop-color:#A80AC0"/>
		<stop  offset="0.9848" style="stop-color:#AD00BD"/>
	</linearGradient>
	<polygon class="st7" points="28.1,12.5 27.7,13 28.1,12.4 	"/>
	<linearGradient id="SVGID_8_" gradientUnits="userSpaceOnUse" x1="19.5636" y1="4.7917" x2="23.1284" y2="2.3453">
		<stop  offset="2.020200e-02" style="stop-color:#000000"/>
		<stop  offset="0.2129" style="stop-color:#040006;stop-opacity:0.8033"/>
		<stop  offset="0.4752" style="stop-color:#100218;stop-opacity:0.5357"/>
		<stop  offset="0.776" style="stop-color:#230334;stop-opacity:0.2286"/>
		<stop  offset="1" style="stop-color:#35054E;stop-opacity:0"/>
	</linearGradient>
	<path class="st8" d="M24,5.2h-0.8l-0.1-0.2c0,0,0,0,0,0c-0.2-0.3-0.5-0.9-1-1.5c-0.5-0.6-1.1-1.3-1.9-1.8c0,0,0,0,0,0
		c-0.2-0.1-0.4-0.3-0.7-0.4c0,0,0,0,0,0h1.1c0,0,0,0,0,0C20.8,1.5,22.9,2.4,24,5.2z"/>
	<linearGradient id="SVGID_9_" gradientUnits="userSpaceOnUse" x1="25.8658" y1="13.7486" x2="26.8735" y2="14.6903">
		<stop  offset="2.020200e-02" style="stop-color:#000000"/>
		<stop  offset="0.5698" style="stop-color:#19032E"/>
		<stop  offset="0.9957" style="stop-color:#2A054D"/>
	</linearGradient>
	<polygon class="st9" points="28.3,12.7 25.5,16.9 25.3,16.6 25.3,16.6 28.1,12.5 28.1,12.4 	"/>
	<linearGradient id="SVGID_10_" gradientUnits="userSpaceOnUse" x1="25.9342" y1="10.7781" x2="27.1653" y2="9.9339">
		<stop  offset="2.020200e-02" style="stop-color:#000000"/>
		<stop  offset="0.2129" style="stop-color:#040006;stop-opacity:0.8033"/>
		<stop  offset="0.4752" style="stop-color:#100218;stop-opacity:0.5357"/>
		<stop  offset="0.776" style="stop-color:#230334;stop-opacity:0.2286"/>
		<stop  offset="1" style="stop-color:#35054E;stop-opacity:0"/>
	</linearGradient>
	<polygon class="st10" points="28.4,12 28.1,12.4 28.1,12.4 28.1,12.4 26.9,10.6 26.9,10.6 25.3,8.3 25.5,7.9 	"/>
	<linearGradient id="SVGID_11_" gradientUnits="userSpaceOnUse" x1="-1.3601" y1="-7.9719" x2="46.8257" y2="45.188">
		<stop  offset="3.535350e-02" style="stop-color:#2AF6FF"/>
		<stop  offset="0.1125" style="stop-color:#38DCF8"/>
		<stop  offset="0.3574" style="stop-color:#618FE3"/>
		<stop  offset="0.5758" style="stop-color:#8252D3"/>
		<stop  offset="0.7596" style="stop-color:#9925C7"/>
		<stop  offset="0.9017" style="stop-color:#A80AC0"/>
		<stop  offset="0.9848" style="stop-color:#AD00BD"/>
	</linearGradient>
	<path class="st11" d="M28.1,12.4L28.1,12.4L28.1,12.4L28.1,12.4L27.7,13l-2.4,3.5l-0.1-0.1l-0.6-0.8l-0.1-0.1l-2.1-3.1l-4.9-7.2
		c0,0,0,0,0,0H9.2c-0.9,0-1.3,0.5-1.5,0.6c-0.1,0.2-0.5,0.7,0,1.3l0.7,1.1l2.8,4.1l4.8,7l0.1,0.1l0,0c0,0,0,0,0,0h-5.6l-2.1-3
		l-2.8-4.1L3.3,9C2.2,7.4,2.3,5.5,3.5,3.9c1.2-1.6,3.4-2.5,5.7-2.5h10.2c0.1,0,0.1,0.1,0.2,0.1c0,0,0.1,0,0.1,0.1c0,0,0,0,0,0
		c0,0,0.1,0,0.1,0c0.1,0,0.1,0.1,0.2,0.1c0,0,0.1,0,0.1,0.1c0,0,0,0,0,0c0,0,0,0,0,0c0,0,0,0,0,0c0,0,0.1,0,0.1,0.1
		c0,0,0.1,0,0.1,0.1c0,0,0,0,0,0c0,0,0,0,0,0c0,0,0.1,0,0.1,0.1c0,0,0,0,0.1,0c0,0,0.1,0.1,0.1,0.1c0,0,0,0,0.1,0
		c0,0,0.1,0.1,0.1,0.1c0,0,0,0,0,0c0,0,0,0,0,0c0,0,0,0,0.1,0c0,0,0,0,0.1,0.1c0,0,0.1,0.1,0.1,0.1c0,0,0,0,0,0c0,0,0.1,0.1,0.1,0.1
		c0,0,0,0,0,0c0,0,0.1,0,0.1,0.1c0,0,0,0.1,0.1,0.1c0.1,0.1,0.1,0.2,0.2,0.2c0,0,0,0,0,0c0,0,0.1,0.1,0.1,0.1c0,0,0,0,0,0.1
		c0,0,0,0,0.1,0.1c0,0,0,0,0,0c0,0,0.1,0.1,0.1,0.1l0.1,0.1c0,0,0,0,0,0l1,1.5c0,0,0,0,0,0l0.1,0.2l2.1,3l1.6,2.4l0,0l0.8,1.1
		l0.2,0.3v0L28.1,12.4z"/>
	<linearGradient id="SVGID_12_" gradientUnits="userSpaceOnUse" x1="18.857" y1="2.056" x2="15.3743" y2="3.5253">
		<stop  offset="3.535350e-02" style="stop-color:#2AF6FF"/>
		<stop  offset="8.787543e-02" style="stop-color:#2AE5F3;stop-opacity:0.9466"/>
		<stop  offset="0.344" style="stop-color:#2D98BA;stop-opacity:0.6865"/>
		<stop  offset="0.5722" style="stop-color:#2F5B8D;stop-opacity:0.4546"/>
		<stop  offset="0.7644" style="stop-color:#302E6C;stop-opacity:0.2593"/>
		<stop  offset="0.913" style="stop-color:#311358;stop-opacity:0.1084"/>
		<stop  offset="1" style="stop-color:#310951;stop-opacity:2.000000e-02"/>
	</linearGradient>
	<polygon class="st12" points="17.6,5.2 15.3,1.3 14.4,1.3 16.7,5.3 	"/>
	<polygon class="st1" points="24.9,7 25.6,6.9 25.6,6.3 24.6,5.7 24.9,7 	"/>
	<polygon class="st1" points="6.7,17.6 7.6,16.5 9.3,18.7 8.3,19.2 7,19.1 	"/>
</g>
</svg>
